# MagicaVoxel @ Ephtracy

# group
o 

# material
mtllib 210501seprobot-2.mtl
usemtl palette

# normals
vn -1 0 0
vn 1 0 0
vn 0 0 1
vn 0 0 -1
vn 0 -1 0
vn 0 1 0

# texcoords
vt 0.494141 0.5
vt 0.748047 0.5
vt 0.775391 0.5

# verts
v -0.4 0.3 -0.3
v -0.4 0.3 -0.4
v -0.4 0.6 -0.3
v -0.4 0.6 -0.4
v -0.3 0.4 -0.2
v -0.3 0.4 -0.3
v -0.3 0.5 -0.2
v -0.3 0.5 -0.3
v -0.2 0.3 -0.1
v -0.2 0.3 -0.2
v -0.2 0.4 0
v -0.2 0.4 -0.1
v -0.2 0.4 -0.2
v -0.2 0.5 0
v -0.2 0.5 -0.1
v -0.2 0.5 -0.2
v -0.2 0.6 -0.1
v -0.2 0.6 -0.2
v -0.1 0.3 -0.2
v -0.1 0.3 -0.3
v -0.1 0.4 0.3
v -0.1 0.4 0.1
v -0.1 0.4 0
v -0.1 0.4 -0.2
v -0.1 0.4 -0.3
v -0.1 0.5 0.4
v -0.1 0.5 0.3
v -0.1 0.5 0
v -0.1 0.5 -0.1
v -0.1 0.5 -0.2
v -0.1 0.5 -0.3
v -0.1 0.6 0.4
v -0.1 0.6 0.1
v -0.1 0.6 -0.1
v -0.1 0.6 -0.2
v -0.1 0.6 -0.3
v 0 0.3 0.1
v 0 0.3 -0.1
v 0 0.4 0.1
v 0 0.4 -0.1
v 0.1 0.4 0.4
v 0.1 0.4 0.2
v 0.1 0.6 0.4
v 0.1 0.6 0.2
v -0.3 0.3 -0.3
v -0.3 0.3 -0.4
v -0.3 0.4 -0.3
v -0.3 0.4 -0.4
v -0.3 0.5 -0.3
v -0.3 0.5 -0.4
v -0.3 0.6 -0.3
v -0.3 0.6 -0.4
v -0.2 0.4 -0.3
v -0.2 0.4 -0.4
v -0.2 0.5 -0.3
v -0.2 0.5 -0.4
v 0 0.3 -0.1
v 0 0.3 -0.3
v 0 0.4 0.3
v 0 0.4 0.2
v 0 0.4 -0.1
v 0 0.4 -0.2
v 0 0.5 0.4
v 0 0.5 0.3
v 0 0.5 0.1
v 0 0.5 -0.1
v 0 0.5 -0.2
v 0 0.6 0.4
v 0 0.6 0.2
v 0 0.6 0.1
v 0 0.6 -0.3
v 0.1 0.3 0.1
v 0.1 0.3 -0.1
v 0.1 0.4 0.1
v 0.1 0.4 -0.1
v 0.1 0.4 -0.2
v 0.1 0.5 -0.1
v 0.1 0.5 -0.2
v 0.2 0.4 0.4
v 0.2 0.4 0.1
v 0.2 0.4 -0.1
v 0.2 0.5 0.1
v 0.2 0.5 -0.1
v 0.2 0.6 0.4
v 0.2 0.6 0.1
v -0.1 0.5 0.4
v -0.1 0.6 0.4
v 0 0.5 0.4
v 0 0.6 0.4
v 0.1 0.4 0.4
v 0.1 0.6 0.4
v 0.2 0.4 0.4
v 0.2 0.6 0.4
v -0.1 0.4 0.3
v -0.1 0.5 0.3
v 0 0.4 0.3
v 0 0.5 0.3
v 0 0.4 0.2
v 0 0.6 0.2
v 0.1 0.4 0.2
v 0.1 0.6 0.2
v 0 0.3 0.1
v 0 0.4 0.1
v 0.1 0.3 0.1
v 0.1 0.4 0.1
v -0.2 0.4 0
v -0.2 0.5 0
v -0.1 0.4 0
v -0.1 0.5 0
v -0.2 0.3 -0.1
v -0.2 0.4 -0.1
v -0.2 0.5 -0.1
v -0.2 0.6 -0.1
v -0.1 0.5 -0.1
v -0.1 0.6 -0.1
v 0 0.3 -0.1
v 0 0.4 -0.1
v -0.3 0.4 -0.2
v -0.3 0.5 -0.2
v -0.2 0.4 -0.2
v -0.2 0.5 -0.2
v -0.4 0.3 -0.3
v -0.4 0.6 -0.3
v -0.3 0.3 -0.3
v -0.3 0.4 -0.3
v -0.3 0.5 -0.3
v -0.3 0.6 -0.3
v 0 0.5 0.1
v 0 0.6 0.1
v 0.1 0.5 0.1
v 0.2 0.5 0.1
v 0.2 0.6 0.1
v 0 0.3 -0.1
v 0 0.4 -0.1
v 0.1 0.3 -0.1
v 0.1 0.4 -0.1
v 0.1 0.5 -0.1
v 0.2 0.4 -0.1
v 0.2 0.5 -0.1
v -0.2 0.3 -0.2
v -0.2 0.4 -0.2
v -0.2 0.5 -0.2
v -0.2 0.6 -0.2
v -0.1 0.3 -0.2
v -0.1 0.4 -0.2
v -0.1 0.5 -0.2
v -0.1 0.6 -0.2
v 0 0.4 -0.2
v 0 0.5 -0.2
v 0.1 0.4 -0.2
v 0.1 0.5 -0.2
v -0.2 0.4 -0.3
v -0.2 0.5 -0.3
v -0.1 0.3 -0.3
v -0.1 0.4 -0.3
v -0.1 0.5 -0.3
v -0.1 0.6 -0.3
v 0 0.3 -0.3
v 0 0.6 -0.3
v -0.4 0.3 -0.4
v -0.4 0.6 -0.4
v -0.3 0.3 -0.4
v -0.3 0.4 -0.4
v -0.3 0.5 -0.4
v -0.3 0.6 -0.4
v -0.2 0.4 -0.4
v -0.2 0.5 -0.4
v 0 0.3 0.1
v 0.1 0.3 0.1
v -0.2 0.3 -0.1
v 0 0.3 -0.1
v 0.1 0.3 -0.1
v -0.2 0.3 -0.2
v -0.1 0.3 -0.2
v -0.4 0.3 -0.3
v -0.3 0.3 -0.3
v -0.1 0.3 -0.3
v 0 0.3 -0.3
v -0.4 0.3 -0.4
v -0.3 0.3 -0.4
v 0.1 0.4 0.4
v 0.2 0.4 0.4
v -0.1 0.4 0.3
v 0 0.4 0.3
v 0 0.4 0.2
v 0.1 0.4 0.2
v -0.1 0.4 0.1
v 0 0.4 0.1
v 0.1 0.4 0.1
v 0.2 0.4 0.1
v -0.2 0.4 0
v -0.1 0.4 0
v -0.2 0.4 -0.1
v 0 0.4 -0.1
v 0.1 0.4 -0.1
v 0.2 0.4 -0.1
v -0.3 0.4 -0.2
v -0.2 0.4 -0.2
v -0.1 0.4 -0.2
v 0 0.4 -0.2
v 0.1 0.4 -0.2
v -0.3 0.4 -0.3
v -0.2 0.4 -0.3
v -0.1 0.4 -0.3
v -0.3 0.4 -0.4
v -0.2 0.4 -0.4
v -0.1 0.5 0.4
v 0 0.5 0.4
v -0.1 0.5 0.3
v 0 0.5 0.3
v 0 0.5 0.1
v 0.1 0.5 0.1
v 0.2 0.5 0.1
v -0.2 0.5 0
v -0.1 0.5 0
v -0.2 0.5 -0.1
v -0.1 0.5 -0.1
v 0 0.5 -0.1
v 0.1 0.5 -0.1
v 0.2 0.5 -0.1
v -0.3 0.5 -0.2
v -0.2 0.5 -0.2
v -0.1 0.5 -0.2
v 0 0.5 -0.2
v 0.1 0.5 -0.2
v -0.3 0.5 -0.3
v -0.2 0.5 -0.3
v -0.1 0.5 -0.3
v -0.3 0.5 -0.4
v -0.2 0.5 -0.4
v -0.1 0.6 0.4
v 0 0.6 0.4
v 0.1 0.6 0.4
v 0.2 0.6 0.4
v 0 0.6 0.2
v 0.1 0.6 0.2
v -0.1 0.6 0.1
v 0 0.6 0.1
v 0.2 0.6 0.1
v -0.2 0.6 -0.1
v -0.1 0.6 -0.1
v -0.2 0.6 -0.2
v -0.1 0.6 -0.2
v -0.4 0.6 -0.3
v -0.3 0.6 -0.3
v -0.1 0.6 -0.3
v 0 0.6 -0.3
v -0.4 0.6 -0.4
v -0.3 0.6 -0.4

# faces
f 3/3/1 2/3/1 1/3/1
f 4/3/1 2/3/1 3/3/1
f 7/3/1 6/3/1 5/3/1
f 8/3/1 6/3/1 7/3/1
f 12/3/1 10/3/1 9/3/1
f 13/3/1 10/3/1 12/3/1
f 14/3/1 12/3/1 11/3/1
f 14/3/1 13/3/1 12/3/1
f 15/3/1 13/3/1 14/3/1
f 16/3/1 13/3/1 15/3/1
f 17/3/1 16/3/1 15/3/1
f 18/3/1 16/3/1 17/3/1
f 24/3/1 20/3/1 19/3/1
f 25/3/1 20/3/1 24/3/1
f 27/2/1 22/2/1 21/2/1
f 28/3/1 23/3/1 22/3/1
f 32/2/1 27/2/1 26/2/1
f 33/2/1 22/2/1 27/2/1
f 33/2/1 27/2/1 32/2/1
f 33/3/1 28/3/1 22/3/1
f 33/3/1 29/3/1 28/3/1
f 34/3/1 29/3/1 33/3/1
f 35/3/1 31/3/1 30/3/1
f 36/3/1 31/3/1 35/3/1
f 39/3/1 38/3/1 37/3/1
f 40/3/1 38/3/1 39/3/1
f 43/2/1 42/2/1 41/2/1
f 44/2/1 42/2/1 43/2/1
f 45/3/2 46/3/2 47/3/2
f 47/3/2 46/3/2 48/3/2
f 49/3/2 50/3/2 51/3/2
f 51/3/2 50/3/2 52/3/2
f 53/3/2 54/3/2 55/3/2
f 55/3/2 54/3/2 56/3/2
f 57/3/2 58/3/2 61/3/2
f 61/3/2 58/3/2 62/3/2
f 59/2/2 60/2/2 64/2/2
f 62/3/2 58/3/2 67/3/2
f 63/2/2 64/2/2 68/2/2
f 64/2/2 60/2/2 69/2/2
f 68/2/2 64/2/2 69/2/2
f 65/3/2 66/3/2 70/3/2
f 66/3/2 67/3/2 70/3/2
f 67/3/2 58/3/2 71/3/2
f 70/3/2 67/3/2 71/3/2
f 72/3/2 73/3/2 74/3/2
f 74/3/2 73/3/2 75/3/2
f 75/1/2 76/1/2 77/1/2
f 77/1/2 76/1/2 78/1/2
f 79/2/2 80/2/2 82/2/2
f 80/1/2 81/1/2 82/1/2
f 82/1/2 81/1/2 83/1/2
f 79/2/2 82/2/2 84/2/2
f 84/2/2 82/2/2 85/2/2
f 88/2/3 87/2/3 86/2/3
f 89/2/3 87/2/3 88/2/3
f 92/2/3 91/2/3 90/2/3
f 93/2/3 91/2/3 92/2/3
f 96/2/3 95/2/3 94/2/3
f 97/2/3 95/2/3 96/2/3
f 100/2/3 99/2/3 98/2/3
f 101/2/3 99/2/3 100/2/3
f 104/3/3 103/3/3 102/3/3
f 105/3/3 103/3/3 104/3/3
f 108/3/3 107/3/3 106/3/3
f 109/3/3 107/3/3 108/3/3
f 114/3/3 113/3/3 112/3/3
f 115/3/3 113/3/3 114/3/3
f 116/3/3 111/3/3 110/3/3
f 117/3/3 111/3/3 116/3/3
f 120/3/3 119/3/3 118/3/3
f 121/3/3 119/3/3 120/3/3
f 124/3/3 123/3/3 122/3/3
f 125/3/3 123/3/3 124/3/3
f 126/3/3 123/3/3 125/3/3
f 127/3/3 123/3/3 126/3/3
f 128/2/4 129/2/4 130/2/4
f 130/2/4 129/2/4 131/2/4
f 131/2/4 129/2/4 132/2/4
f 133/3/4 134/3/4 135/3/4
f 135/3/4 134/3/4 136/3/4
f 136/1/4 137/1/4 138/1/4
f 138/1/4 137/1/4 139/1/4
f 140/3/4 141/3/4 144/3/4
f 144/3/4 141/3/4 145/3/4
f 142/3/4 143/3/4 146/3/4
f 146/3/4 143/3/4 147/3/4
f 148/1/4 149/1/4 150/1/4
f 150/1/4 149/1/4 151/1/4
f 152/3/4 153/3/4 155/3/4
f 155/3/4 153/3/4 156/3/4
f 154/3/4 155/3/4 158/3/4
f 156/3/4 157/3/4 158/3/4
f 155/3/4 156/3/4 158/3/4
f 158/3/4 157/3/4 159/3/4
f 160/3/4 161/3/4 162/3/4
f 162/3/4 161/3/4 163/3/4
f 163/3/4 161/3/4 164/3/4
f 164/3/4 161/3/4 165/3/4
f 163/3/4 164/3/4 166/3/4
f 166/3/4 164/3/4 167/3/4
f 171/3/5 169/3/5 168/3/5
f 172/3/5 169/3/5 171/3/5
f 173/3/5 171/3/5 170/3/5
f 174/3/5 171/3/5 173/3/5
f 177/3/5 171/3/5 174/3/5
f 178/3/5 171/3/5 177/3/5
f 179/3/5 176/3/5 175/3/5
f 180/3/5 176/3/5 179/3/5
f 185/2/5 184/2/5 183/2/5
f 186/2/5 182/2/5 181/2/5
f 187/2/5 185/2/5 183/2/5
f 187/2/5 186/2/5 185/2/5
f 188/2/5 186/2/5 187/2/5
f 189/2/5 182/2/5 186/2/5
f 189/2/5 186/2/5 188/2/5
f 190/2/5 182/2/5 189/2/5
f 192/3/5 188/3/5 187/3/5
f 193/3/5 192/3/5 191/3/5
f 194/3/5 188/3/5 192/3/5
f 194/3/5 192/3/5 193/3/5
f 195/1/5 190/1/5 189/1/5
f 196/1/5 190/1/5 195/1/5
f 200/1/5 195/1/5 194/1/5
f 201/1/5 195/1/5 200/1/5
f 202/3/5 199/3/5 198/3/5
f 202/3/5 198/3/5 197/3/5
f 203/3/5 199/3/5 202/3/5
f 204/3/5 199/3/5 203/3/5
f 205/3/5 203/3/5 202/3/5
f 206/3/5 203/3/5 205/3/5
f 209/2/5 208/2/5 207/2/5
f 210/2/5 208/2/5 209/2/5
f 214/3/6 215/3/6 216/3/6
f 216/3/6 215/3/6 217/3/6
f 211/3/6 212/3/6 218/3/6
f 212/1/6 213/1/6 219/1/6
f 218/3/6 212/3/6 219/3/6
f 219/1/6 213/1/6 220/1/6
f 218/1/6 219/1/6 224/1/6
f 224/1/6 219/1/6 225/1/6
f 222/3/6 223/3/6 226/3/6
f 221/3/6 222/3/6 226/3/6
f 226/3/6 223/3/6 227/3/6
f 227/3/6 223/3/6 228/3/6
f 226/3/6 227/3/6 229/3/6
f 229/3/6 227/3/6 230/3/6
f 231/2/6 232/2/6 235/2/6
f 233/2/6 234/2/6 236/2/6
f 231/2/6 235/2/6 237/2/6
f 235/2/6 236/2/6 237/2/6
f 237/2/6 236/2/6 238/2/6
f 236/2/6 234/2/6 239/2/6
f 238/2/6 236/2/6 239/2/6
f 237/3/6 238/3/6 241/3/6
f 240/3/6 241/3/6 242/3/6
f 241/3/6 238/3/6 243/3/6
f 242/3/6 241/3/6 243/3/6
f 243/3/6 238/3/6 246/3/6
f 246/3/6 238/3/6 247/3/6
f 244/3/6 245/3/6 248/3/6
f 248/3/6 245/3/6 249/3/6
