# MagicaVoxel @ Ephtracy

# group
o 

# material
mtllib 210501bwrobot-4.mtl
usemtl palette

# normals
vn -1 0 0
vn 1 0 0
vn 0 0 1
vn 0 0 -1
vn 0 -1 0
vn 0 1 0

# texcoords
vt 0.494141 0.5
vt 0.748047 0.5
vt 0.775391 0.5

# verts
v -0.4 0.3 2.98023e-08
v -0.4 0.3 -0.1
v -0.4 0.4 0.1
v -0.4 0.4 2.98023e-08
v -0.4 0.4 -0.1
v -0.4 0.4 -0.2
v -0.4 0.5 0.1
v -0.4 0.5 2.98023e-08
v -0.4 0.5 -0.1
v -0.4 0.5 -0.2
v -0.4 0.6 2.98023e-08
v -0.4 0.6 -0.1
v -0.3 0.1 0.1
v -0.3 0.1 -0.3
v -0.3 0.2 0.2
v -0.3 0.2 0.1
v -0.3 0.2 -0.3
v -0.3 0.2 -0.4
v -0.3 0.3 2.98023e-08
v -0.3 0.3 -0.1
v -0.3 0.4 0.1
v -0.3 0.4 2.98023e-08
v -0.3 0.4 -0.1
v -0.3 0.4 -0.2
v -0.3 0.5 0.1
v -0.3 0.5 2.98023e-08
v -0.3 0.5 -0.1
v -0.3 0.5 -0.2
v -0.3 0.6 2.98023e-08
v -0.3 0.6 -0.1
v -0.3 0.7 0.2
v -0.3 0.7 0.1
v -0.3 0.7 -0.3
v -0.3 0.7 -0.4
v -0.3 0.8 0.1
v -0.3 0.8 -0.3
v -0.2 0.1 0.2
v -0.2 0.1 0.1
v -0.2 0.1 -0.3
v -0.2 0.1 -0.4
v -0.2 0.2 0.3
v -0.2 0.2 0.2
v -0.2 0.2 0.1
v -0.2 0.2 -0.3
v -0.2 0.2 -0.4
v -0.2 0.4 -0.4
v -0.2 0.4 -0.6
v -0.2 0.5 -0.4
v -0.2 0.5 -0.6
v -0.2 0.7 0.3
v -0.2 0.7 0.2
v -0.2 0.7 -0.3
v -0.2 0.7 -0.4
v -0.2 0.8 -0.3
v -0.2 0.8 -0.4
v -0.1 0.7 2.98023e-08
v -0.1 0.7 -0.2
v -0.1 0.8 2.98023e-08
v -0.1 0.8 -0.2
v 0.1 0.7 2.98023e-08
v 0.1 0.7 -0.2
v 0.1 0.8 2.98023e-08
v 0.1 0.8 -0.2
v 0.2 0.4 -0.4
v 0.2 0.4 -0.6
v 0.2 0.5 -0.4
v 0.2 0.5 -0.6
v 0.3 0.7 0.1
v 0.3 0.7 -0.3
v 0.3 0.8 0.1
v 0.3 0.8 -0.3
v -0.2 0.7 0.1
v -0.2 0.7 -0.3
v -0.2 0.8 0.1
v -0.2 0.8 -0.3
v -0.1 0.4 -0.4
v -0.1 0.4 -0.6
v -0.1 0.5 -0.4
v -0.1 0.5 -0.6
v 0 0.7 2.98023e-08
v 0 0.7 -0.2
v 0 0.8 2.98023e-08
v 0 0.8 -0.2
v 0.2 0.7 2.98023e-08
v 0.2 0.7 -0.2
v 0.2 0.8 2.98023e-08
v 0.2 0.8 -0.2
v 0.3 0.1 0.2
v 0.3 0.1 0.1
v 0.3 0.1 -0.3
v 0.3 0.1 -0.4
v 0.3 0.2 0.3
v 0.3 0.2 0.2
v 0.3 0.2 0.1
v 0.3 0.2 -0.3
v 0.3 0.2 -0.4
v 0.3 0.4 -0.4
v 0.3 0.4 -0.6
v 0.3 0.5 -0.4
v 0.3 0.5 -0.6
v 0.3 0.7 0.3
v 0.3 0.7 0.2
v 0.3 0.7 -0.3
v 0.3 0.7 -0.4
v 0.3 0.8 -0.3
v 0.3 0.8 -0.4
v 0.4 0.1 0.1
v 0.4 0.1 -0.3
v 0.4 0.2 0.2
v 0.4 0.2 0.1
v 0.4 0.2 -0.3
v 0.4 0.2 -0.4
v 0.4 0.3 2.98023e-08
v 0.4 0.3 -0.1
v 0.4 0.4 0.1
v 0.4 0.4 2.98023e-08
v 0.4 0.4 -0.1
v 0.4 0.4 -0.2
v 0.4 0.5 0.1
v 0.4 0.5 2.98023e-08
v 0.4 0.5 -0.1
v 0.4 0.5 -0.2
v 0.4 0.6 2.98023e-08
v 0.4 0.6 -0.1
v 0.4 0.7 0.2
v 0.4 0.7 0.1
v 0.4 0.7 -0.3
v 0.4 0.7 -0.4
v 0.4 0.8 0.1
v 0.4 0.8 -0.3
v 0.5 0.3 2.98023e-08
v 0.5 0.3 -0.1
v 0.5 0.4 0.1
v 0.5 0.4 2.98023e-08
v 0.5 0.4 -0.1
v 0.5 0.4 -0.2
v 0.5 0.5 0.1
v 0.5 0.5 2.98023e-08
v 0.5 0.5 -0.1
v 0.5 0.5 -0.2
v 0.5 0.6 2.98023e-08
v 0.5 0.6 -0.1
v -0.2 0.2 0.3
v -0.2 0.7 0.3
v 0.3 0.2 0.3
v 0.3 0.7 0.3
v -0.3 0.2 0.2
v -0.3 0.7 0.2
v -0.2 0.1 0.2
v -0.2 0.2 0.2
v -0.2 0.7 0.2
v 0.3 0.1 0.2
v 0.3 0.2 0.2
v 0.3 0.7 0.2
v 0.4 0.2 0.2
v 0.4 0.7 0.2
v -0.4 0.4 0.1
v -0.4 0.5 0.1
v -0.3 0.1 0.1
v -0.3 0.2 0.1
v -0.3 0.4 0.1
v -0.3 0.5 0.1
v -0.3 0.7 0.1
v -0.3 0.8 0.1
v -0.2 0.1 0.1
v -0.2 0.2 0.1
v -0.2 0.7 0.1
v -0.2 0.8 0.1
v 0.3 0.1 0.1
v 0.3 0.2 0.1
v 0.3 0.7 0.1
v 0.3 0.8 0.1
v 0.4 0.1 0.1
v 0.4 0.2 0.1
v 0.4 0.4 0.1
v 0.4 0.5 0.1
v 0.4 0.7 0.1
v 0.4 0.8 0.1
v 0.5 0.4 0.1
v 0.5 0.5 0.1
v -0.4 0.3 2.98023e-08
v -0.4 0.4 2.98023e-08
v -0.4 0.5 2.98023e-08
v -0.4 0.6 2.98023e-08
v -0.3 0.3 2.98023e-08
v -0.3 0.4 2.98023e-08
v -0.3 0.5 2.98023e-08
v -0.3 0.6 2.98023e-08
v -0.1 0.7 2.98023e-08
v -0.1 0.8 2.98023e-08
v 0 0.7 2.98023e-08
v 0 0.8 2.98023e-08
v 0.1 0.7 2.98023e-08
v 0.1 0.8 2.98023e-08
v 0.2 0.7 2.98023e-08
v 0.2 0.8 2.98023e-08
v 0.4 0.3 2.98023e-08
v 0.4 0.4 2.98023e-08
v 0.4 0.5 2.98023e-08
v 0.4 0.6 2.98023e-08
v 0.5 0.3 2.98023e-08
v 0.5 0.4 2.98023e-08
v 0.5 0.5 2.98023e-08
v 0.5 0.6 2.98023e-08
v -0.2 0.7 -0.3
v -0.2 0.8 -0.3
v 0.3 0.7 -0.3
v 0.3 0.8 -0.3
v -0.4 0.3 -0.1
v -0.4 0.4 -0.1
v -0.4 0.5 -0.1
v -0.4 0.6 -0.1
v -0.3 0.3 -0.1
v -0.3 0.4 -0.1
v -0.3 0.5 -0.1
v -0.3 0.6 -0.1
v 0.4 0.3 -0.1
v 0.4 0.4 -0.1
v 0.4 0.5 -0.1
v 0.4 0.6 -0.1
v 0.5 0.3 -0.1
v 0.5 0.4 -0.1
v 0.5 0.5 -0.1
v 0.5 0.6 -0.1
v -0.4 0.4 -0.2
v -0.4 0.5 -0.2
v -0.3 0.4 -0.2
v -0.3 0.5 -0.2
v -0.1 0.7 -0.2
v -0.1 0.8 -0.2
v 0 0.7 -0.2
v 0 0.8 -0.2
v 0.1 0.7 -0.2
v 0.1 0.8 -0.2
v 0.2 0.7 -0.2
v 0.2 0.8 -0.2
v 0.4 0.4 -0.2
v 0.4 0.5 -0.2
v 0.5 0.4 -0.2
v 0.5 0.5 -0.2
v -0.3 0.1 -0.3
v -0.3 0.2 -0.3
v -0.3 0.7 -0.3
v -0.3 0.8 -0.3
v -0.2 0.1 -0.3
v -0.2 0.2 -0.3
v -0.2 0.7 -0.3
v -0.2 0.8 -0.3
v 0.3 0.1 -0.3
v 0.3 0.2 -0.3
v 0.3 0.7 -0.3
v 0.3 0.8 -0.3
v 0.4 0.1 -0.3
v 0.4 0.2 -0.3
v 0.4 0.7 -0.3
v 0.4 0.8 -0.3
v -0.3 0.2 -0.4
v -0.3 0.7 -0.4
v -0.2 0.1 -0.4
v -0.2 0.2 -0.4
v -0.2 0.4 -0.4
v -0.2 0.5 -0.4
v -0.2 0.7 -0.4
v -0.2 0.8 -0.4
v -0.1 0.4 -0.4
v -0.1 0.5 -0.4
v 0.2 0.4 -0.4
v 0.2 0.5 -0.4
v 0.3 0.1 -0.4
v 0.3 0.2 -0.4
v 0.3 0.4 -0.4
v 0.3 0.5 -0.4
v 0.3 0.7 -0.4
v 0.3 0.8 -0.4
v 0.4 0.2 -0.4
v 0.4 0.7 -0.4
v -0.2 0.4 -0.6
v -0.2 0.5 -0.6
v -0.1 0.4 -0.6
v -0.1 0.5 -0.6
v 0.2 0.4 -0.6
v 0.2 0.5 -0.6
v 0.3 0.4 -0.6
v 0.3 0.5 -0.6
v -0.2 0.1 0.2
v 0.3 0.1 0.2
v -0.3 0.1 0.1
v -0.2 0.1 0.1
v 0.3 0.1 0.1
v 0.4 0.1 0.1
v -0.3 0.1 -0.3
v -0.2 0.1 -0.3
v 0.3 0.1 -0.3
v 0.4 0.1 -0.3
v -0.2 0.1 -0.4
v 0.3 0.1 -0.4
v -0.2 0.2 0.3
v 0.3 0.2 0.3
v -0.3 0.2 0.2
v -0.2 0.2 0.2
v 0.3 0.2 0.2
v 0.4 0.2 0.2
v -0.3 0.2 0.1
v -0.2 0.2 0.1
v 0.3 0.2 0.1
v 0.4 0.2 0.1
v -0.3 0.2 -0.3
v -0.2 0.2 -0.3
v 0.3 0.2 -0.3
v 0.4 0.2 -0.3
v -0.3 0.2 -0.4
v -0.2 0.2 -0.4
v 0.3 0.2 -0.4
v 0.4 0.2 -0.4
v -0.4 0.3 2.98023e-08
v -0.3 0.3 2.98023e-08
v 0.4 0.3 2.98023e-08
v 0.5 0.3 2.98023e-08
v -0.4 0.3 -0.1
v -0.3 0.3 -0.1
v 0.4 0.3 -0.1
v 0.5 0.3 -0.1
v -0.4 0.4 0.1
v -0.3 0.4 0.1
v 0.4 0.4 0.1
v 0.5 0.4 0.1
v -0.4 0.4 2.98023e-08
v -0.3 0.4 2.98023e-08
v 0.4 0.4 2.98023e-08
v 0.5 0.4 2.98023e-08
v -0.4 0.4 -0.1
v -0.3 0.4 -0.1
v 0.4 0.4 -0.1
v 0.5 0.4 -0.1
v -0.4 0.4 -0.2
v -0.3 0.4 -0.2
v 0.4 0.4 -0.2
v 0.5 0.4 -0.2
v -0.2 0.4 -0.4
v -0.1 0.4 -0.4
v 0.2 0.4 -0.4
v 0.3 0.4 -0.4
v -0.2 0.4 -0.6
v -0.1 0.4 -0.6
v 0.2 0.4 -0.6
v 0.3 0.4 -0.6
v -0.4 0.5 0.1
v -0.3 0.5 0.1
v 0.4 0.5 0.1
v 0.5 0.5 0.1
v -0.4 0.5 2.98023e-08
v -0.3 0.5 2.98023e-08
v 0.4 0.5 2.98023e-08
v 0.5 0.5 2.98023e-08
v -0.4 0.5 -0.1
v -0.3 0.5 -0.1
v 0.4 0.5 -0.1
v 0.5 0.5 -0.1
v -0.4 0.5 -0.2
v -0.3 0.5 -0.2
v 0.4 0.5 -0.2
v 0.5 0.5 -0.2
v -0.2 0.5 -0.4
v -0.1 0.5 -0.4
v 0.2 0.5 -0.4
v 0.3 0.5 -0.4
v -0.2 0.5 -0.6
v -0.1 0.5 -0.6
v 0.2 0.5 -0.6
v 0.3 0.5 -0.6
v -0.4 0.6 2.98023e-08
v -0.3 0.6 2.98023e-08
v 0.4 0.6 2.98023e-08
v 0.5 0.6 2.98023e-08
v -0.4 0.6 -0.1
v -0.3 0.6 -0.1
v 0.4 0.6 -0.1
v 0.5 0.6 -0.1
v -0.2 0.7 0.3
v 0.3 0.7 0.3
v -0.3 0.7 0.2
v -0.2 0.7 0.2
v 0.3 0.7 0.2
v 0.4 0.7 0.2
v -0.3 0.7 0.1
v -0.2 0.7 0.1
v 0.3 0.7 0.1
v 0.4 0.7 0.1
v -0.1 0.7 2.98023e-08
v 0 0.7 2.98023e-08
v 0.1 0.7 2.98023e-08
v 0.2 0.7 2.98023e-08
v -0.1 0.7 -0.2
v 0 0.7 -0.2
v 0.1 0.7 -0.2
v 0.2 0.7 -0.2
v -0.3 0.7 -0.3
v -0.2 0.7 -0.3
v 0.3 0.7 -0.3
v 0.4 0.7 -0.3
v -0.3 0.7 -0.4
v -0.2 0.7 -0.4
v 0.3 0.7 -0.4
v 0.4 0.7 -0.4
v -0.3 0.8 0.1
v -0.2 0.8 0.1
v 0.3 0.8 0.1
v 0.4 0.8 0.1
v -0.1 0.8 2.98023e-08
v 0 0.8 2.98023e-08
v 0.1 0.8 2.98023e-08
v 0.2 0.8 2.98023e-08
v -0.1 0.8 -0.2
v 0 0.8 -0.2
v 0.1 0.8 -0.2
v 0.2 0.8 -0.2
v -0.3 0.8 -0.3
v -0.2 0.8 -0.3
v 0.3 0.8 -0.3
v 0.4 0.8 -0.3
v -0.2 0.8 -0.4
v 0.3 0.8 -0.4

# faces
f 4/2/1 2/2/1 1/2/1
f 5/2/1 2/2/1 4/2/1
f 7/2/1 4/2/1 3/2/1
f 7/2/1 6/2/1 5/2/1
f 7/2/1 5/2/1 4/2/1
f 8/2/1 6/2/1 7/2/1
f 9/2/1 6/2/1 8/2/1
f 10/2/1 6/2/1 9/2/1
f 11/2/1 9/2/1 8/2/1
f 12/2/1 9/2/1 11/2/1
f 16/3/1 14/3/1 13/3/1
f 17/3/1 14/3/1 16/3/1
f 19/3/1 16/3/1 15/3/1
f 19/3/1 18/3/1 17/3/1
f 19/3/1 17/3/1 16/3/1
f 20/3/1 18/3/1 19/3/1
f 21/3/1 19/3/1 15/3/1
f 22/3/1 19/3/1 21/3/1
f 23/3/1 18/3/1 20/3/1
f 24/3/1 18/3/1 23/3/1
f 25/3/1 21/3/1 15/3/1
f 28/3/1 18/3/1 24/3/1
f 29/3/1 26/3/1 25/3/1
f 30/3/1 28/3/1 27/3/1
f 31/3/1 29/3/1 25/3/1
f 31/3/1 30/3/1 29/3/1
f 31/3/1 25/3/1 15/3/1
f 32/3/1 30/3/1 31/3/1
f 33/3/1 28/3/1 30/3/1
f 33/3/1 30/3/1 32/3/1
f 33/3/1 18/3/1 28/3/1
f 34/3/1 18/3/1 33/3/1
f 35/3/1 33/3/1 32/3/1
f 36/3/1 33/3/1 35/3/1
f 42/3/1 38/3/1 37/3/1
f 43/3/1 38/3/1 42/3/1
f 44/3/1 40/3/1 39/3/1
f 45/3/1 40/3/1 44/3/1
f 48/2/1 47/2/1 46/2/1
f 49/2/1 47/2/1 48/2/1
f 50/3/1 42/3/1 41/3/1
f 51/3/1 42/3/1 50/3/1
f 54/3/1 53/3/1 52/3/1
f 55/3/1 53/3/1 54/3/1
f 58/1/1 57/1/1 56/1/1
f 59/1/1 57/1/1 58/1/1
f 62/1/1 61/1/1 60/1/1
f 63/1/1 61/1/1 62/1/1
f 66/2/1 65/2/1 64/2/1
f 67/2/1 65/2/1 66/2/1
f 70/3/1 69/3/1 68/3/1
f 71/3/1 69/3/1 70/3/1
f 72/3/2 73/3/2 74/3/2
f 74/3/2 73/3/2 75/3/2
f 76/2/2 77/2/2 78/2/2
f 78/2/2 77/2/2 79/2/2
f 80/1/2 81/1/2 82/1/2
f 82/1/2 81/1/2 83/1/2
f 84/1/2 85/1/2 86/1/2
f 86/1/2 85/1/2 87/1/2
f 88/3/2 89/3/2 93/3/2
f 93/3/2 89/3/2 94/3/2
f 90/3/2 91/3/2 95/3/2
f 95/3/2 91/3/2 96/3/2
f 97/2/2 98/2/2 99/2/2
f 99/2/2 98/2/2 100/2/2
f 92/3/2 93/3/2 101/3/2
f 101/3/2 93/3/2 102/3/2
f 103/3/2 104/3/2 105/3/2
f 105/3/2 104/3/2 106/3/2
f 107/3/2 108/3/2 110/3/2
f 110/3/2 108/3/2 111/3/2
f 109/3/2 110/3/2 113/3/2
f 111/3/2 112/3/2 113/3/2
f 110/3/2 111/3/2 113/3/2
f 113/3/2 112/3/2 114/3/2
f 109/3/2 113/3/2 115/3/2
f 115/3/2 113/3/2 116/3/2
f 114/3/2 112/3/2 117/3/2
f 117/3/2 112/3/2 118/3/2
f 109/3/2 115/3/2 119/3/2
f 118/3/2 112/3/2 122/3/2
f 119/3/2 120/3/2 123/3/2
f 121/3/2 122/3/2 124/3/2
f 119/3/2 123/3/2 125/3/2
f 123/3/2 124/3/2 125/3/2
f 109/3/2 119/3/2 125/3/2
f 125/3/2 124/3/2 126/3/2
f 124/3/2 122/3/2 127/3/2
f 126/3/2 124/3/2 127/3/2
f 122/3/2 112/3/2 127/3/2
f 127/3/2 112/3/2 128/3/2
f 126/3/2 127/3/2 129/3/2
f 129/3/2 127/3/2 130/3/2
f 131/2/2 132/2/2 134/2/2
f 134/2/2 132/2/2 135/2/2
f 133/2/2 134/2/2 137/2/2
f 135/2/2 136/2/2 137/2/2
f 134/2/2 135/2/2 137/2/2
f 137/2/2 136/2/2 138/2/2
f 138/2/2 136/2/2 139/2/2
f 139/2/2 136/2/2 140/2/2
f 138/2/2 139/2/2 141/2/2
f 141/2/2 139/2/2 142/2/2
f 145/3/3 144/3/3 143/3/3
f 146/3/3 144/3/3 145/3/3
f 150/3/3 148/3/3 147/3/3
f 151/3/3 148/3/3 150/3/3
f 152/3/3 150/3/3 149/3/3
f 153/3/3 150/3/3 152/3/3
f 155/3/3 154/3/3 153/3/3
f 156/3/3 154/3/3 155/3/3
f 161/2/3 158/2/3 157/2/3
f 162/2/3 158/2/3 161/2/3
f 165/3/3 160/3/3 159/3/3
f 166/3/3 160/3/3 165/3/3
f 167/3/3 164/3/3 163/3/3
f 168/3/3 164/3/3 167/3/3
f 173/3/3 170/3/3 169/3/3
f 174/3/3 170/3/3 173/3/3
f 177/3/3 172/3/3 171/3/3
f 178/3/3 172/3/3 177/3/3
f 179/2/3 176/2/3 175/2/3
f 180/2/3 176/2/3 179/2/3
f 185/2/3 182/2/3 181/2/3
f 186/2/3 182/2/3 185/2/3
f 187/2/3 184/2/3 183/2/3
f 188/2/3 184/2/3 187/2/3
f 191/1/3 190/1/3 189/1/3
f 192/1/3 190/1/3 191/1/3
f 195/1/3 194/1/3 193/1/3
f 196/1/3 194/1/3 195/1/3
f 201/2/3 198/2/3 197/2/3
f 202/2/3 198/2/3 201/2/3
f 203/2/3 200/2/3 199/2/3
f 204/2/3 200/2/3 203/2/3
f 207/3/3 206/3/3 205/3/3
f 208/3/3 206/3/3 207/3/3
f 209/2/4 210/2/4 213/2/4
f 213/2/4 210/2/4 214/2/4
f 211/2/4 212/2/4 215/2/4
f 215/2/4 212/2/4 216/2/4
f 217/2/4 218/2/4 221/2/4
f 221/2/4 218/2/4 222/2/4
f 219/2/4 220/2/4 223/2/4
f 223/2/4 220/2/4 224/2/4
f 225/2/4 226/2/4 227/2/4
f 227/2/4 226/2/4 228/2/4
f 229/1/4 230/1/4 231/1/4
f 231/1/4 230/1/4 232/1/4
f 233/1/4 234/1/4 235/1/4
f 235/1/4 234/1/4 236/1/4
f 237/2/4 238/2/4 239/2/4
f 239/2/4 238/2/4 240/2/4
f 241/3/4 242/3/4 245/3/4
f 245/3/4 242/3/4 246/3/4
f 243/3/4 244/3/4 247/3/4
f 247/3/4 244/3/4 248/3/4
f 249/3/4 250/3/4 253/3/4
f 253/3/4 250/3/4 254/3/4
f 251/3/4 252/3/4 255/3/4
f 255/3/4 252/3/4 256/3/4
f 257/3/4 258/3/4 260/3/4
f 260/3/4 258/3/4 261/3/4
f 261/3/4 258/3/4 262/3/4
f 262/3/4 258/3/4 263/3/4
f 259/3/4 260/3/4 265/3/4
f 260/3/4 261/3/4 265/3/4
f 263/3/4 264/3/4 266/3/4
f 262/3/4 263/3/4 266/3/4
f 259/3/4 265/3/4 267/3/4
f 265/3/4 266/3/4 267/3/4
f 266/3/4 264/3/4 268/3/4
f 267/3/4 266/3/4 268/3/4
f 259/3/4 267/3/4 269/3/4
f 269/3/4 267/3/4 270/3/4
f 270/3/4 267/3/4 271/3/4
f 268/3/4 264/3/4 272/3/4
f 272/3/4 264/3/4 273/3/4
f 273/3/4 264/3/4 274/3/4
f 270/3/4 271/3/4 275/3/4
f 272/3/4 273/3/4 275/3/4
f 271/3/4 272/3/4 275/3/4
f 275/3/4 273/3/4 276/3/4
f 277/2/4 278/2/4 279/2/4
f 279/2/4 278/2/4 280/2/4
f 281/2/4 282/2/4 283/2/4
f 283/2/4 282/2/4 284/2/4
f 288/3/5 286/3/5 285/3/5
f 289/3/5 286/3/5 288/3/5
f 291/3/5 288/3/5 287/3/5
f 291/3/5 290/3/5 289/3/5
f 291/3/5 289/3/5 288/3/5
f 292/3/5 290/3/5 291/3/5
f 293/3/5 290/3/5 292/3/5
f 294/3/5 290/3/5 293/3/5
f 295/3/5 293/3/5 292/3/5
f 296/3/5 293/3/5 295/3/5
f 300/3/5 298/3/5 297/3/5
f 301/3/5 298/3/5 300/3/5
f 303/3/5 300/3/5 299/3/5
f 304/3/5 300/3/5 303/3/5
f 305/3/5 302/3/5 301/3/5
f 306/3/5 302/3/5 305/3/5
f 311/3/5 308/3/5 307/3/5
f 312/3/5 308/3/5 311/3/5
f 313/3/5 310/3/5 309/3/5
f 314/3/5 310/3/5 313/3/5
f 319/2/5 316/2/5 315/2/5
f 320/2/5 316/2/5 319/2/5
f 321/2/5 318/2/5 317/2/5
f 322/2/5 318/2/5 321/2/5
f 327/2/5 324/2/5 323/2/5
f 328/2/5 324/2/5 327/2/5
f 329/2/5 326/2/5 325/2/5
f 330/2/5 326/2/5 329/2/5
f 335/2/5 332/2/5 331/2/5
f 336/2/5 332/2/5 335/2/5
f 337/2/5 334/2/5 333/2/5
f 338/2/5 334/2/5 337/2/5
f 343/2/5 340/2/5 339/2/5
f 344/2/5 340/2/5 343/2/5
f 345/2/5 342/2/5 341/2/5
f 346/2/5 342/2/5 345/2/5
f 347/2/6 348/2/6 351/2/6
f 351/2/6 348/2/6 352/2/6
f 349/2/6 350/2/6 353/2/6
f 353/2/6 350/2/6 354/2/6
f 355/2/6 356/2/6 359/2/6
f 359/2/6 356/2/6 360/2/6
f 357/2/6 358/2/6 361/2/6
f 361/2/6 358/2/6 362/2/6
f 363/2/6 364/2/6 367/2/6
f 367/2/6 364/2/6 368/2/6
f 365/2/6 366/2/6 369/2/6
f 369/2/6 366/2/6 370/2/6
f 371/2/6 372/2/6 375/2/6
f 375/2/6 372/2/6 376/2/6
f 373/2/6 374/2/6 377/2/6
f 377/2/6 374/2/6 378/2/6
f 379/3/6 380/3/6 382/3/6
f 382/3/6 380/3/6 383/3/6
f 381/3/6 382/3/6 385/3/6
f 382/2/6 383/2/6 386/2/6
f 385/3/6 382/3/6 386/3/6
f 383/3/6 384/3/6 387/3/6
f 386/2/6 383/2/6 387/2/6
f 387/3/6 384/3/6 388/3/6
f 386/2/6 387/2/6 389/2/6
f 389/2/6 387/2/6 390/2/6
f 390/2/6 387/2/6 391/2/6
f 391/2/6 387/2/6 392/2/6
f 386/2/6 389/2/6 393/2/6
f 390/2/6 391/2/6 394/2/6
f 394/2/6 391/2/6 395/2/6
f 392/2/6 387/2/6 396/2/6
f 394/2/6 395/2/6 398/2/6
f 395/2/6 396/2/6 398/2/6
f 386/2/6 393/2/6 398/2/6
f 393/2/6 394/2/6 398/2/6
f 396/2/6 387/2/6 399/2/6
f 398/2/6 396/2/6 399/2/6
f 397/3/6 398/3/6 401/3/6
f 401/3/6 398/3/6 402/3/6
f 399/3/6 400/3/6 403/3/6
f 403/3/6 400/3/6 404/3/6
f 409/1/6 410/1/6 413/1/6
f 413/1/6 410/1/6 414/1/6
f 411/1/6 412/1/6 415/1/6
f 415/1/6 412/1/6 416/1/6
f 405/3/6 406/3/6 417/3/6
f 417/3/6 406/3/6 418/3/6
f 407/3/6 408/3/6 419/3/6
f 419/3/6 408/3/6 420/3/6
f 418/3/6 419/3/6 421/3/6
f 421/3/6 419/3/6 422/3/6
